{"asset":{"generator":"Khronos glTF Blender I/O v4.0.44","version":"2.0"},"scene":0,"scenes":[{"name":"Scene","nodes":[0]}],"nodes":[{"mesh":0,"name":"Pointer"}],"materials":[{"doubleSided":true,"name":"Pointer","pbrMetallicRoughness":{"baseColorTexture":{"index":0},"metallicFactor":0,"roughnessFactor":0.5}}],"meshes":[{"name":"Pointer","primitives":[{"attributes":{"POSITION":0,"NORMAL":1,"TEXCOORD_0":2},"indices":3,"material":0}]}],"textures":[{"sampler":0,"source":0}],"images":[{"mimeType":"image/png","name":"Mug_Texture","uri":"data:application/octet-stream;base64,"}],"accessors":[{"bufferView":0,"componentType":5126,"count":1214,"max":[1.1029335260391235,3.10093355178833,0.2019454538822174],"min":[-1.0989333391189575,-0.0009334087371826172,-0.2019454538822174],"type":"VEC3"},{"bufferView":1,"componentType":5126,"count":1214,"type":"VEC3"},{"bufferView":2,"componentType":5126,"count":1214,"type":"VEC2"},{"bufferView":3,"componentType":5123,"count":7092,"type":"SCALAR"}],"bufferViews":[{"buffer":0,"byteLength":14568,"byteOffset":0,"target":34962},{"buffer":0,"byteLength":14568,"byteOffset":14568,"target":34962},{"buffer":0,"byteLength":9712,"byteOffset":29136,"target":34962},{"buffer":0,"byteLength":14184,"byteOffset":38848,"target":34963}],"samplers":[{"magFilter":9729,"minFilter":9987}],"buffers":[{"byteLength":53032,"uri":"data:application/octet-stream;base64,"}]}